<svg width="150" height="181" viewBox="0 0 150 181" fill="none" xmlns="http://www.w3.org/2000/svg">
<path d="M131.35 25.0928L141.876 40.999H11V9H142L131.35 25.0928Z" fill="#B5D7FF"/>
<path d="M69.7552 163.671C65.8938 160.061 60.5962 156.132 50.9359 156.132V113C68.0257 113 75.3428 125.996 75.3428 125.996C75.3428 125.996 82.6599 113 99.7486 113V156.131C90.0883 156.131 84.7907 160.06 80.9293 163.67" stroke="white" stroke-width="2" stroke-miterlimit="10"/>
<path d="M75.3429 132.226V163.879" stroke="white" stroke-width="2" stroke-miterlimit="10"/>
<path d="M49.8874 123.572H45V169.127H105.686V123.572H100.798" stroke="white" stroke-width="2" stroke-miterlimit="10"/>
<path d="M24.5284 21.4062V20.2727H31.2827V21.4062H28.5597V29H27.2472V21.4062H24.5284ZM43.5812 24.6364C43.5812 25.5682 43.4107 26.3693 43.0698 27.0398C42.7289 27.7074 42.2616 28.2216 41.6678 28.5824C41.0769 28.9403 40.405 29.1193 39.6522 29.1193C38.8965 29.1193 38.2218 28.9403 37.6281 28.5824C37.0371 28.2216 36.5712 27.706 36.2303 27.0355C35.8894 26.3651 35.719 25.5653 35.719 24.6364C35.719 23.7045 35.8894 22.9048 36.2303 22.2372C36.5712 21.5668 37.0371 21.0526 37.6281 20.6946C38.2218 20.3338 38.8965 20.1534 39.6522 20.1534C40.405 20.1534 41.0769 20.3338 41.6678 20.6946C42.2616 21.0526 42.7289 21.5668 43.0698 22.2372C43.4107 22.9048 43.5812 23.7045 43.5812 24.6364ZM42.2772 24.6364C42.2772 23.9261 42.1621 23.3281 41.932 22.8423C41.7048 22.3537 41.3923 21.9844 40.9945 21.7344C40.5996 21.4815 40.1522 21.3551 39.6522 21.3551C39.1494 21.3551 38.7005 21.4815 38.3056 21.7344C37.9107 21.9844 37.5982 22.3537 37.3681 22.8423C37.1408 23.3281 37.0272 23.9261 37.0272 24.6364C37.0272 25.3466 37.1408 25.946 37.3681 26.4347C37.5982 26.9205 37.9107 27.2898 38.3056 27.5426C38.7005 27.7926 39.1494 27.9176 39.6522 27.9176C40.1522 27.9176 40.5996 27.7926 40.9945 27.5426C41.3923 27.2898 41.7048 26.9205 41.932 26.4347C42.1621 25.946 42.2772 25.3466 42.2772 24.6364ZM48.8229 29V20.2727H51.9337C52.6126 20.2727 53.1751 20.3963 53.6212 20.6435C54.0672 20.8906 54.401 21.2287 54.6226 21.6577C54.8442 22.0838 54.955 22.5639 54.955 23.098C54.955 23.6349 54.8428 24.1179 54.6183 24.5469C54.3967 24.973 54.0615 25.3111 53.6126 25.5611C53.1666 25.8082 52.6055 25.9318 51.9294 25.9318H49.7902V24.8153H51.8101C52.2391 24.8153 52.5871 24.7415 52.8541 24.5938C53.1212 24.4432 53.3172 24.2386 53.4422 23.9801C53.5672 23.7216 53.6297 23.4276 53.6297 23.098C53.6297 22.7685 53.5672 22.4759 53.4422 22.2202C53.3172 21.9645 53.1197 21.7642 52.8499 21.6193C52.5828 21.4744 52.2305 21.402 51.793 21.402H50.1396V29H48.8229ZM61.4154 20.2727V29H60.0986V20.2727H61.4154ZM74.1816 23.1108H72.8521C72.8009 22.8267 72.7058 22.5767 72.5666 22.3608C72.4273 22.1449 72.2569 21.9616 72.0552 21.8111C71.8535 21.6605 71.6276 21.5469 71.3776 21.4702C71.1305 21.3935 70.8677 21.3551 70.5893 21.3551C70.0864 21.3551 69.6362 21.4815 69.2384 21.7344C68.8435 21.9872 68.531 22.358 68.3009 22.8466C68.0737 23.3352 67.96 23.9318 67.96 24.6364C67.96 25.3466 68.0737 25.946 68.3009 26.4347C68.531 26.9233 68.845 27.2926 69.2427 27.5426C69.6404 27.7926 70.0879 27.9176 70.585 27.9176C70.8606 27.9176 71.1219 27.8807 71.3691 27.8068C71.6191 27.7301 71.845 27.6179 72.0467 27.4702C72.2484 27.3224 72.4188 27.142 72.558 26.929C72.7001 26.7131 72.7981 26.4659 72.8521 26.1875L74.1816 26.1918C74.1106 26.6207 73.9728 27.0156 73.7683 27.3764C73.5666 27.7344 73.3066 28.044 72.9884 28.3054C72.6731 28.5639 72.3123 28.7642 71.906 28.9062C71.4998 29.0483 71.0566 29.1193 70.5765 29.1193C69.8208 29.1193 69.1475 28.9403 68.5566 28.5824C67.9657 28.2216 67.4998 27.706 67.1589 27.0355C66.8208 26.3651 66.6518 25.5653 66.6518 24.6364C66.6518 23.7045 66.8222 22.9048 67.1631 22.2372C67.504 21.5668 67.97 21.0526 68.5609 20.6946C69.1518 20.3338 69.8237 20.1534 70.5765 20.1534C71.0396 20.1534 71.4714 20.2202 71.8719 20.3537C72.2754 20.4844 72.6376 20.6776 72.9586 20.9332C73.2796 21.1861 73.5452 21.4957 73.7555 21.8622C73.9657 22.2259 74.1077 22.642 74.1816 23.1108Z" fill="black"/>
<path d="M71.8568 83.2146C72.1085 83.529 72.4748 83.7304 72.8751 83.7746C73.2754 83.8189 73.6768 83.7023 73.9911 83.4505L81.1018 77.7552C81.4161 77.5035 81.6176 77.1372 81.6618 76.7369C81.706 76.3366 81.5895 75.9352 81.3377 75.6209C81.086 75.3066 80.7197 75.1051 80.3194 75.0609C79.9191 75.0167 79.5177 75.1332 79.2034 75.385L72.0927 81.0803C71.7784 81.3321 71.5769 81.6984 71.5327 82.0986C71.4885 82.4989 71.605 82.9003 71.8568 83.2146ZM77.0747 84.8716L73.5193 87.7192C72.5764 88.4745 71.3721 88.8242 70.1713 88.6915C68.9705 88.5588 67.8716 87.9545 67.1163 87.0115C66.3611 86.0686 66.0113 84.8642 66.1441 83.6634C66.2768 82.4627 66.8811 81.3638 67.824 80.6085L71.3794 77.7609C71.6937 77.5091 71.8951 77.1428 71.9394 76.7425C71.9836 76.3423 71.867 75.9408 71.6153 75.6265C71.3635 75.3122 70.9972 75.1108 70.597 75.0665C70.1967 75.0223 69.7952 75.1389 69.4809 75.3906L65.9256 78.2383C64.354 79.497 63.3469 81.3285 63.1257 83.3298C62.9045 85.3312 63.4874 87.3384 64.7461 88.91C66.0048 90.4815 67.8363 91.4887 69.8377 91.7099C71.839 91.9311 73.8462 91.3482 75.4178 90.0894L78.9731 87.2418C79.2874 86.99 79.4889 86.6237 79.5331 86.2235C79.5773 85.8232 79.4608 85.4218 79.209 85.1075C78.9573 84.7931 78.591 84.5917 78.1907 84.5475C77.7904 84.5032 77.389 84.6198 77.0747 84.8716ZM77.7767 68.7461L74.2214 71.5937C73.9071 71.8455 73.7057 72.2118 73.6614 72.6121C73.6172 73.0123 73.7337 73.4138 73.9855 73.7281C74.2372 74.0424 74.6035 74.2438 75.0038 74.2881C75.4041 74.3323 75.8055 74.2157 76.1198 73.964L79.6752 71.1163C80.6181 70.3611 81.8225 70.0113 83.0233 70.1441C84.224 70.2768 85.3229 70.8811 86.0782 71.824C86.8334 72.767 87.1832 73.9713 87.0504 75.1721C86.9177 76.3729 86.3134 77.4718 85.3705 78.227L81.8151 81.0747C81.5008 81.3264 81.2994 81.6927 81.2552 82.093C81.2109 82.4933 81.3275 82.8947 81.5792 83.209C81.831 83.5233 82.1973 83.7248 82.5976 83.769C82.9978 83.8132 83.3993 83.6967 83.7136 83.4449L87.2689 80.5973C88.8405 79.3385 89.8477 77.507 90.0689 75.5057C90.2901 73.5044 89.7072 71.4971 88.4484 69.9256C87.1897 68.354 85.3582 67.3469 83.3569 67.1257C81.3555 66.9045 79.3483 67.4873 77.7767 68.7461Z" fill="white"/>
</svg>
