<svg width="151" height="192" viewBox="0 0 151 192" fill="none" xmlns="http://www.w3.org/2000/svg">
<rect x="13.5" y="29.5" width="104" height="141" fill="black" stroke="white"/>
<rect x="31.45" y="34.5206" width="98" height="141" transform="rotate(2.41011 31.45 34.5206)" fill="black" stroke="white"/>
<rect x="36.5" y="15.5" width="104" height="141" fill="black" stroke="white"/>
<path d="M82.3636 97.4545V96.3636C82.3636 93.8636 82.5606 91.8712 82.9545 90.3864C83.3485 88.9015 83.9318 87.7121 84.7045 86.8182C85.4773 85.9091 86.4242 85.0909 87.5455 84.3636C88.5152 83.7273 89.3788 83.1136 90.1364 82.5227C90.9091 81.9318 91.5152 81.303 91.9545 80.6364C92.4091 79.9697 92.6364 79.2121 92.6364 78.3636C92.6364 77.6061 92.4545 76.9394 92.0909 76.3636C91.7273 75.7879 91.2348 75.3409 90.6136 75.0227C89.9924 74.7045 89.303 74.5455 88.5455 74.5455C87.7273 74.5455 86.9697 74.7348 86.2727 75.1136C85.5909 75.4924 85.0379 76.0151 84.6136 76.6818C84.2045 77.3485 84 78.1212 84 79H72.3636C72.3939 75.6667 73.1515 72.9621 74.6364 70.8864C76.1212 68.7955 78.0909 67.2652 80.5455 66.2955C83 65.3106 85.697 64.8182 88.6364 64.8182C91.8788 64.8182 94.7727 65.2955 97.3182 66.25C99.8636 67.1894 101.871 68.6136 103.341 70.5227C104.811 72.4167 105.545 74.7879 105.545 77.6364C105.545 79.4697 105.227 81.0833 104.591 82.4773C103.97 83.8561 103.098 85.0758 101.977 86.1364C100.871 87.1818 99.5758 88.1364 98.0909 89C97 89.6364 96.0833 90.2955 95.3409 90.9773C94.5985 91.6439 94.0379 92.4091 93.6591 93.2727C93.2803 94.1212 93.0909 95.1515 93.0909 96.3636V97.4545H82.3636ZM87.9091 112.727C86.1515 112.727 84.6439 112.114 83.3864 110.886C82.1439 109.644 81.5303 108.136 81.5455 106.364C81.5303 104.636 82.1439 103.159 83.3864 101.932C84.6439 100.705 86.1515 100.091 87.9091 100.091C89.5758 100.091 91.0455 100.705 92.3182 101.932C93.6061 103.159 94.2576 104.636 94.2727 106.364C94.2576 107.545 93.947 108.621 93.3409 109.591C92.75 110.545 91.9773 111.311 91.0227 111.886C90.0682 112.447 89.0303 112.727 87.9091 112.727Z" fill="#B5D7FF"/>
</svg>
