<svg width="207" height="160" viewBox="0 0 207 160" fill="none" xmlns="http://www.w3.org/2000/svg">
<mask id="path-1-inside-1_239_41" fill="white">
<path d="M179.716 27.6191L194.824 48H7V7H195L179.716 27.6191Z"/>
</mask>
<path d="M179.716 27.6191L194.824 48H7V7H195L179.716 27.6191Z" fill="#B5D7FF"/>
<path d="M179.716 27.6191L178.912 27.0236L178.471 27.6192L178.912 28.2147L179.716 27.6191ZM194.824 48V49H196.81L195.628 47.4045L194.824 48ZM7 48H6V49H7V48ZM7 7V6H6V7H7ZM195 7L195.803 7.5955L196.986 6H195V7ZM179.716 27.6191L178.912 28.2147L194.021 48.5955L194.824 48L195.628 47.4045L180.519 27.0236L179.716 27.6191ZM194.824 48V47H7V48V49H194.824V48ZM7 48H8V7H7H6V48H7ZM7 7V8H195V7V6H7V7ZM195 7L194.197 6.4045L178.912 27.0236L179.716 27.6191L180.519 28.2146L195.803 7.5955L195 7Z" fill="white" mask="url(#path-1-inside-1_239_41)"/>
<mask id="path-3-inside-2_239_41" fill="white">
<path d="M152.151 79.6191L164.848 100H7V59H164.996L152.151 79.6191Z"/>
</mask>
<path d="M152.151 79.6191L151.303 79.0904L150.973 79.6191L151.303 80.1479L152.151 79.6191ZM164.848 100V101H166.649L165.696 99.4713L164.848 100ZM7 100H6V101H7V100ZM7 59V58H6V59H7ZM164.996 59L165.845 59.5287L166.797 58H164.996V59ZM152.151 79.6191L151.303 80.1479L163.999 100.529L164.848 100L165.696 99.4713L153 79.0904L152.151 79.6191ZM164.848 100V99H7V100V101H164.848V100ZM7 100H8V59H7H6V100H7ZM7 59V60H164.996V59V58H7V59ZM164.996 59L164.147 58.4713L151.303 79.0904L152.151 79.6191L153 80.1479L165.845 59.5287L164.996 59Z" fill="white" mask="url(#path-3-inside-2_239_41)"/>
<mask id="path-5-inside-3_239_41" fill="white">
<path d="M152.151 131.619L164.848 152H7V111H164.996L152.151 131.619Z"/>
</mask>
<path d="M152.151 131.619L151.303 131.09L150.973 131.619L151.303 132.148L152.151 131.619ZM164.848 152V153H166.649L165.696 151.471L164.848 152ZM7 152H6V153H7V152ZM7 111V110H6V111H7ZM164.996 111L165.845 111.529L166.797 110H164.996V111ZM152.151 131.619L151.303 132.148L163.999 152.529L164.848 152L165.696 151.471L153 131.09L152.151 131.619ZM164.848 152V151H7V152V153H164.848V152ZM7 152H8V111H7H6V152H7ZM7 111V112H164.996V111V110H7V111ZM164.996 111L164.147 110.471L151.303 131.09L152.151 131.619L153 132.148L165.845 111.529L164.996 111Z" fill="white" mask="url(#path-5-inside-3_239_41)"/>
<path d="M21.5284 24.4062V23.2727H28.2827V24.4062H25.5597V32H24.2472V24.4062H21.5284ZM40.5812 27.6364C40.5812 28.5682 40.4107 29.3693 40.0698 30.0398C39.7289 30.7074 39.2616 31.2216 38.6678 31.5824C38.0769 31.9403 37.405 32.1193 36.6522 32.1193C35.8965 32.1193 35.2218 31.9403 34.6281 31.5824C34.0371 31.2216 33.5712 30.706 33.2303 30.0355C32.8894 29.3651 32.719 28.5653 32.719 27.6364C32.719 26.7045 32.8894 25.9048 33.2303 25.2372C33.5712 24.5668 34.0371 24.0526 34.6281 23.6946C35.2218 23.3338 35.8965 23.1534 36.6522 23.1534C37.405 23.1534 38.0769 23.3338 38.6678 23.6946C39.2616 24.0526 39.7289 24.5668 40.0698 25.2372C40.4107 25.9048 40.5812 26.7045 40.5812 27.6364ZM39.2772 27.6364C39.2772 26.9261 39.1621 26.3281 38.932 25.8423C38.7048 25.3537 38.3923 24.9844 37.9945 24.7344C37.5996 24.4815 37.1522 24.3551 36.6522 24.3551C36.1494 24.3551 35.7005 24.4815 35.3056 24.7344C34.9107 24.9844 34.5982 25.3537 34.3681 25.8423C34.1408 26.3281 34.0272 26.9261 34.0272 27.6364C34.0272 28.3466 34.1408 28.946 34.3681 29.4347C34.5982 29.9205 34.9107 30.2898 35.3056 30.5426C35.7005 30.7926 36.1494 30.9176 36.6522 30.9176C37.1522 30.9176 37.5996 30.7926 37.9945 30.5426C38.3923 30.2898 38.7048 29.9205 38.932 29.4347C39.1621 28.946 39.2772 28.3466 39.2772 27.6364ZM45.8229 32V23.2727H48.9337C49.6126 23.2727 50.1751 23.3963 50.6212 23.6435C51.0672 23.8906 51.401 24.2287 51.6226 24.6577C51.8442 25.0838 51.955 25.5639 51.955 26.098C51.955 26.6349 51.8428 27.1179 51.6183 27.5469C51.3967 27.973 51.0615 28.3111 50.6126 28.5611C50.1666 28.8082 49.6055 28.9318 48.9294 28.9318H46.7902V27.8153H48.8101C49.2391 27.8153 49.5871 27.7415 49.8541 27.5938C50.1212 27.4432 50.3172 27.2386 50.4422 26.9801C50.5672 26.7216 50.6297 26.4276 50.6297 26.098C50.6297 25.7685 50.5672 25.4759 50.4422 25.2202C50.3172 24.9645 50.1197 24.7642 49.8499 24.6193C49.5828 24.4744 49.2305 24.402 48.793 24.402H47.1396V32H45.8229ZM58.4154 23.2727V32H57.0986V23.2727H58.4154ZM71.1816 26.1108H69.8521C69.8009 25.8267 69.7058 25.5767 69.5666 25.3608C69.4273 25.1449 69.2569 24.9616 69.0552 24.8111C68.8535 24.6605 68.6276 24.5469 68.3776 24.4702C68.1305 24.3935 67.8677 24.3551 67.5893 24.3551C67.0864 24.3551 66.6362 24.4815 66.2384 24.7344C65.8435 24.9872 65.531 25.358 65.3009 25.8466C65.0737 26.3352 64.96 26.9318 64.96 27.6364C64.96 28.3466 65.0737 28.946 65.3009 29.4347C65.531 29.9233 65.845 30.2926 66.2427 30.5426C66.6404 30.7926 67.0879 30.9176 67.585 30.9176C67.8606 30.9176 68.1219 30.8807 68.3691 30.8068C68.6191 30.7301 68.845 30.6179 69.0467 30.4702C69.2484 30.3224 69.4188 30.142 69.558 29.929C69.7001 29.7131 69.7981 29.4659 69.8521 29.1875L71.1816 29.1918C71.1106 29.6207 70.9728 30.0156 70.7683 30.3764C70.5666 30.7344 70.3066 31.044 69.9884 31.3054C69.6731 31.5639 69.3123 31.7642 68.906 31.9062C68.4998 32.0483 68.0566 32.1193 67.5765 32.1193C66.8208 32.1193 66.1475 31.9403 65.5566 31.5824C64.9657 31.2216 64.4998 30.706 64.1589 30.0355C63.8208 29.3651 63.6518 28.5653 63.6518 27.6364C63.6518 26.7045 63.8222 25.9048 64.1631 25.2372C64.504 24.5668 64.97 24.0526 65.5609 23.6946C66.1518 23.3338 66.8237 23.1534 67.5765 23.1534C68.0396 23.1534 68.4714 23.2202 68.8719 23.3537C69.2754 23.4844 69.6376 23.6776 69.9586 23.9332C70.2796 24.1861 70.5452 24.4957 70.7555 24.8622C70.9657 25.2259 71.1077 25.642 71.1816 26.1108Z" fill="black"/>
</svg>
